<?xml version="1.0" encoding="UTF-8"?>
<svg id="Layer_1" data-name="Layer 1" xmlns="http://www.w3.org/2000/svg" viewBox="0 0 254.45 190.77">
  <defs>
    <style>
      .cls-1 {
        fill: #0b2545;
      }
    </style>
  </defs>
  <path class="cls-1" d="M213.59,0H40.87C18.33,0,0,18.33,0,40.87v109.04c0,22.54,18.33,40.87,40.87,40.87H213.59c22.53,0,40.86-18.33,40.86-40.87V40.87c0-22.53-18.33-40.87-40.86-40.87Zm28.92,149.9c0,15.95-12.97,28.92-28.92,28.92H40.87c-15.95,0-28.92-12.97-28.92-28.92V40.87c0-15.95,12.97-28.92,28.92-28.92H213.59c15.95,0,28.92,12.97,28.92,28.92v109.04Z"/>
  <path class="cls-1" d="M214.5,32.71c-29.09,28.34-58.18,56.69-87.27,85.04-29.09-28.34-58.18-56.69-87.27-85.04-5.69-5.55-14.43,3.17-8.73,8.73,19.28,18.79,38.56,37.57,57.83,56.36-18.98,18-37.97,36-56.95,54-5.78,5.48,2.96,14.2,8.73,8.73,19.02-18.04,38.04-36.07,57.06-54.11,8.32,8.11,16.64,16.21,24.95,24.32,1.36,1.32,2.89,1.83,4.35,1.76,1.47,.07,3.01-.43,4.38-1.76,8.41-8.19,16.82-16.39,25.23-24.58,19.11,18.13,38.23,36.25,57.34,54.38,5.76,5.46,14.51-3.25,8.73-8.73-19.07-18.09-38.15-36.18-57.23-54.27,19.19-18.7,38.38-37.39,57.56-56.09,5.7-5.56-3.03-14.28-8.73-8.73Z"/>
</svg>