<?xml version="1.0" encoding="UTF-8"?>
<svg id="svg2" xmlns="http://www.w3.org/2000/svg" xmlns:xlink="http://www.w3.org/1999/xlink" viewBox="0 0 255.08 255.06">
  <defs>
    <style>
      .cls-1 {
        fill: #fff;
      }

      .cls-2 {
        fill: url(#linear-gradient);
        isolation: isolate;
        opacity: .78;
      }

      .cls-3 {
        fill: #0b2545;
      }
    </style>
    <linearGradient id="linear-gradient" x1="-1278.42" y1="511.95" x2="-1334.53" y2="675.51" gradientTransform="translate(-691.35 -340.29) rotate(-180) scale(.59 -.59)" gradientUnits="userSpaceOnUse">
      <stop offset="0" stop-color="#fff"/>
      <stop offset="1" stop-color="#fff" stop-opacity="0"/>
    </linearGradient>
  </defs>
  <g id="layer1">
    <path id="rect1942" class="cls-3" d="M216.56,0H38.52C17.24,0,0,17.24,0,38.52V216.54c0,21.27,17.24,38.52,38.52,38.52H216.56c21.27,0,38.52-17.24,38.52-38.52V38.52c0-21.27-17.24-38.52-38.52-38.52Z"/>
    <path id="path1950" class="cls-2" d="M187.69,10.9H67.39c-31.84,0-57.48,25.84-57.48,57.94v117.36c1.03,25.06,5,9.22,12.54-18.53,8.77-32.25,37.33-60.44,72.12-81.56,26.55-16.12,56.27-26.42,110.36-27.4,30.68-.55,27.97-39.82-17.25-47.81Z"/>
  </g>
  <g id="layer1-2" data-name="layer1">
    <g id="g3019">
      <path id="path28" class="cls-1" d="M77.18,214.1V98.76H38.84v115.35h38.34ZM58.02,83.01c13.36,0,21.69-8.86,21.69-19.93-.25-11.32-8.33-19.93-21.44-19.93s-21.69,8.61-21.69,19.93,8.32,19.93,21.19,19.93h.25Z"/>
      <path id="path30" class="cls-1" d="M98.4,214.1h38.34v-64.41c0-3.45,.25-6.89,1.26-9.36,2.76-6.89,9.08-14.02,19.67-14.02,13.87,0,19.42,10.58,19.42,26.08v61.71h38.34v-66.14c0-35.43-18.91-51.91-44.14-51.91-20.68,0-29.76,11.56-34.81,19.43h.26v-16.72h-38.34c.51,10.82,0,115.35,0,115.35h0Z"/>
    </g>
  </g>
</svg>